<svg xmlns:xlink="http://www.w3.org/1999/xlink" xmlns="http://www.w3.org/2000/svg" width="697px" height="382px" viewBox="0 0 697 382" style="overflow: hidden; display: block; width: 697px; height: 382px;"><defs><path fill="rgb(0,0,0)" stroke="rgb(0,0,0)" d="M 0,0 L 10,-5 L 5,0 L 10,5 Z" fill-opacity="1" stroke-opacity="1" stroke-width="1" stroke-linecap="butt" stroke-linejoin="miter" stroke-miterlimit="10" id="ygc486_0"/><path fill="rgb(0,0,0)" stroke="rgb(0,0,0)" d="M 0,0 L 10,-5 L 5,0 L 10,5 Z" fill-opacity="1" stroke-opacity="1" stroke-width="1" stroke-linecap="butt" stroke-linejoin="miter" stroke-miterlimit="10" id="ygc486_1"/><path fill="rgb(0,0,0)" stroke="rgb(0,0,0)" d="M 0,0 L 10,-5 L 5,0 L 10,5 Z" fill-opacity="1" stroke-opacity="1" stroke-width="1" stroke-linecap="butt" stroke-linejoin="miter" stroke-miterlimit="10" id="ygc486_2"/><path fill="rgb(0,0,0)" stroke="rgb(0,0,0)" d="M 0,0 L 10,-5 L 5,0 L 10,5 Z" fill-opacity="1" stroke-opacity="1" stroke-width="1" stroke-linecap="butt" stroke-linejoin="miter" stroke-miterlimit="10" id="ygc486_3"/><path fill="rgb(0,0,0)" stroke="rgb(0,0,0)" d="M 0,0 L 10,-5 L 5,0 L 10,5 Z" fill-opacity="1" stroke-opacity="1" stroke-width="1" stroke-linecap="butt" stroke-linejoin="miter" stroke-miterlimit="10" id="ygc486_4"/><path fill="rgb(0,0,0)" stroke="rgb(0,0,0)" d="M 0,0 L 10,-5 L 5,0 L 10,5 Z" fill-opacity="1" stroke-opacity="1" stroke-width="1" stroke-linecap="butt" stroke-linejoin="miter" stroke-miterlimit="10" id="ygc486_5"/><path fill="rgb(0,0,0)" stroke="rgb(0,0,0)" d="M 0,0 L 10,-5 L 5,0 L 10,5 Z" fill-opacity="1" stroke-opacity="1" stroke-width="1" stroke-linecap="butt" stroke-linejoin="miter" stroke-miterlimit="10" id="ygc486_6"/><path fill="rgb(0,0,0)" stroke="rgb(0,0,0)" d="M 0,0 L 10,-5 L 5,0 L 10,5 Z" fill-opacity="1" stroke-opacity="1" stroke-width="1" stroke-linecap="butt" stroke-linejoin="miter" stroke-miterlimit="10" id="ygc486_7"/></defs><g style="pointer-events:visiblePainted" transform="translate(455 347.99815368652344)" image-rendering="auto" shape-rendering="auto"><g><path fill="none" stroke="rgb(0,0,0)" d="M 12.530607595185424,-103.97027908842524 L -35.362361149687786,-127.52602828462163" stroke-opacity="1" stroke-width="0.75" stroke-linecap="butt" stroke-linejoin="miter" stroke-miterlimit="10"/><use xlink:href="#ygc486_0" transform="matrix(1.43574 0.706156 -0.706156 1.43574 -42.5411 -131.057)" style="pointer-events: none;"/><use xlink:href="#ygc486_1" transform="matrix(-1.43574 -0.706156 0.706156 -1.43574 19.7093 -100.439)" style="pointer-events: none;"/></g><g><path fill="none" stroke="rgb(0,0,0)" d="M 11.735687005588014,-215.34804202226653 L -32.23568700558801,-196.3860275885426" stroke-opacity="1" stroke-width="0.75" stroke-linecap="butt" stroke-linejoin="miter" stroke-miterlimit="10"/><use xlink:href="#ygc486_2" transform="matrix(1.46921 -0.633576 0.633576 1.46921 -39.5817 -193.218)" style="pointer-events: none;"/><use xlink:href="#ygc486_3" transform="matrix(-1.46921 0.633576 -0.633576 -1.46921 19.0817 -218.516)" style="pointer-events: none;"/></g><g><path fill="none" stroke="rgb(0,0,0)" d="M -224.760434128826,-214.58646797116194 L -184.739565871174,-197.00010068454526" stroke-opacity="1" stroke-width="0.75" stroke-linecap="butt" stroke-linejoin="miter" stroke-miterlimit="10"/><use xlink:href="#ygc486_4" transform="matrix(-1.46481 -0.643682 0.643682 -1.46481 -177.416 -193.782)" style="pointer-events: none;"/><use xlink:href="#ygc486_5" transform="matrix(1.46481 0.643682 -0.643682 1.46481 -232.084 -217.805)" style="pointer-events: none;"/></g><g><path fill="none" stroke="rgb(0,0,0)" d="M -227.1530333803502,-104.03071890444768 L -180.3943599845787,-127.4655884685992" stroke-opacity="1" stroke-width="0.75" stroke-linecap="butt" stroke-linejoin="miter" stroke-miterlimit="10"/><use xlink:href="#ygc486_6" transform="matrix(-1.4304 0.7169 -0.7169 -1.4304 -173.242 -131.05)" style="pointer-events: none;"/><use xlink:href="#ygc486_7" transform="matrix(1.4304 -0.7169 0.7169 1.4304 -234.305 -100.446)" style="pointer-events: none;"/></g><rect fill="rgb(255,153,153)" stroke="rgb(0,0,0)" stroke-opacity="1" stroke-width="4" stroke-linecap="butt" stroke-linejoin="miter" stroke-miterlimit="10" fill-opacity="1" height="84" y="-297.998" width="172" x="-405"/><rect fill="rgb(255,153,153)" stroke="rgb(0,0,0)" stroke-opacity="1" stroke-width="4" stroke-linecap="butt" stroke-linejoin="miter" stroke-miterlimit="10" fill-opacity="1" height="84" y="-99.9982" width="172" x="-405"/><rect fill="rgb(255,153,153)" stroke="rgb(0,0,0)" stroke-opacity="1" stroke-width="4" stroke-linecap="butt" stroke-linejoin="miter" stroke-miterlimit="10" fill-opacity="1" height="84" y="-99.9982" width="172" x="20"/><rect fill="rgb(255,153,153)" stroke="rgb(0,0,0)" stroke-opacity="1" stroke-width="4" stroke-linecap="butt" stroke-linejoin="miter" stroke-miterlimit="10" fill-opacity="1" height="84" y="-297.998" width="172" x="20"/><rect fill="rgb(255,153,153)" stroke="rgb(0,0,0)" stroke-opacity="1" stroke-width="4" stroke-linecap="butt" stroke-linejoin="miter" stroke-miterlimit="10" fill-opacity="1" height="64" y="-195.498" width="136" x="-176.5"/><g transform="translate(-405 -297.99815368652344)"><text font-family="Arial" font-size="20px" font-style="normal" font-weight="normal" text-anchor="middle" fill="rgb(0,0,0)" fill-opacity="1" dy="1em" transform="translate(86 30.828125)">Service 1</text></g><g transform="translate(-405 -99.99815368652344)"><text font-family="Arial" font-size="20px" font-style="normal" font-weight="normal" text-anchor="middle" fill="rgb(0,0,0)" fill-opacity="1" dy="1em" transform="translate(86 30.828125)">Service 3</text></g><g transform="translate(20 -99.99815368652344)"><text font-family="Arial" font-size="20px" font-style="normal" font-weight="normal" text-anchor="middle" fill="rgb(0,0,0)" fill-opacity="1" dy="1em" transform="translate(86 30.828125)">Service 4</text></g><g transform="translate(20 -297.99815368652344)"><text font-family="Arial" font-size="20px" font-style="normal" font-weight="normal" text-anchor="middle" fill="rgb(0,0,0)" fill-opacity="1" dy="1em" transform="translate(86 30.828125)">Service 2</text></g><g transform="translate(-176.5 -195.49815368652344)"><text font-family="Arial" font-size="20px" font-style="normal" font-weight="normal" text-anchor="middle" fill="rgb(0,0,0)" fill-opacity="1" dy="1em" transform="translate(68 20.828125)">Broker</text></g></g></svg>