<svg xmlns:xlink="http://www.w3.org/1999/xlink" xmlns="http://www.w3.org/2000/svg" width="671px" height="371px" viewBox="0 0 671 371" style="overflow: hidden; display: block; width: 671px; height: 371px;"><defs><path fill="rgb(0,0,0)" stroke="rgb(0,0,0)" d="M 0,0 L 10,-5 L 5,0 L 10,5 Z" fill-opacity="1" stroke-opacity="1" stroke-width="1" stroke-linecap="butt" stroke-linejoin="miter" stroke-miterlimit="10" id="ygc466_0"/><path fill="rgb(0,0,0)" stroke="rgb(0,0,0)" d="M 0,0 L 10,-5 L 5,0 L 10,5 Z" fill-opacity="1" stroke-opacity="1" stroke-width="1" stroke-linecap="butt" stroke-linejoin="miter" stroke-miterlimit="10" id="ygc466_1"/><path fill="rgb(0,0,0)" stroke="rgb(0,0,0)" d="M 0,0 L 10,-5 L 5,0 L 10,5 Z" fill-opacity="1" stroke-opacity="1" stroke-width="1" stroke-linecap="butt" stroke-linejoin="miter" stroke-miterlimit="10" id="ygc466_2"/><path fill="rgb(0,0,0)" stroke="rgb(0,0,0)" d="M 0,0 L 10,-5 L 5,0 L 10,5 Z" fill-opacity="1" stroke-opacity="1" stroke-width="1" stroke-linecap="butt" stroke-linejoin="miter" stroke-miterlimit="10" id="ygc466_3"/><path fill="rgb(0,0,0)" stroke="rgb(0,0,0)" d="M 0,0 L 10,-5 L 5,0 L 10,5 Z" fill-opacity="1" stroke-opacity="1" stroke-width="1" stroke-linecap="butt" stroke-linejoin="miter" stroke-miterlimit="10" id="ygc466_4"/><path fill="rgb(0,0,0)" stroke="rgb(0,0,0)" d="M 0,0 L 10,-5 L 5,0 L 10,5 Z" fill-opacity="1" stroke-opacity="1" stroke-width="1" stroke-linecap="butt" stroke-linejoin="miter" stroke-miterlimit="10" id="ygc466_5"/><path fill="rgb(0,0,0)" stroke="rgb(0,0,0)" d="M 0,0 L 10,-5 L 5,0 L 10,5 Z" fill-opacity="1" stroke-opacity="1" stroke-width="1" stroke-linecap="butt" stroke-linejoin="miter" stroke-miterlimit="10" id="ygc466_6"/><path fill="rgb(0,0,0)" stroke="rgb(0,0,0)" d="M 0,0 L 10,-5 L 5,0 L 10,5 Z" fill-opacity="1" stroke-opacity="1" stroke-width="1" stroke-linecap="butt" stroke-linejoin="miter" stroke-miterlimit="10" id="ygc466_7"/><path fill="rgb(0,0,0)" stroke="rgb(0,0,0)" d="M 0,0 L 10,-5 L 5,0 L 10,5 Z" fill-opacity="1" stroke-opacity="1" stroke-width="1" stroke-linecap="butt" stroke-linejoin="miter" stroke-miterlimit="10" id="ygc466_8"/><path fill="rgb(0,0,0)" stroke="rgb(0,0,0)" d="M 0,0 L 10,-5 L 5,0 L 10,5 Z" fill-opacity="1" stroke-opacity="1" stroke-width="1" stroke-linecap="butt" stroke-linejoin="miter" stroke-miterlimit="10" id="ygc466_9"/><path fill="rgb(0,0,0)" stroke="rgb(0,0,0)" d="M 0,0 L 10,-5 L 5,0 L 10,5 Z" fill-opacity="1" stroke-opacity="1" stroke-width="1" stroke-linecap="butt" stroke-linejoin="miter" stroke-miterlimit="10" id="ygc466_10"/><path fill="rgb(0,0,0)" stroke="rgb(0,0,0)" d="M 0,0 L 10,-5 L 5,0 L 10,5 Z" fill-opacity="1" stroke-opacity="1" stroke-width="1" stroke-linecap="butt" stroke-linejoin="miter" stroke-miterlimit="10" id="ygc466_11"/></defs><g style="pointer-events:visiblePainted" transform="translate(444 347.99815368652344)" image-rendering="auto" shape-rendering="auto"><g><path fill="none" stroke="rgb(0,0,0)" d="M -308,-110.99815368652344 L -308,-213.99815368652344" stroke-opacity="1" stroke-width="0.75" stroke-linecap="butt" stroke-linejoin="miter" stroke-miterlimit="10"/></g><g><path fill="none" stroke="rgb(0,0,0)" d="M -308,-213.99815368652344 L -308,-110.99815368652344" stroke-opacity="1" stroke-width="0.75" stroke-linecap="butt" stroke-linejoin="miter" stroke-miterlimit="10"/></g><g><path fill="none" stroke="rgb(0,0,0)" d="M -308,-213.99815368652344 L -308,-110.99815368652344" stroke-opacity="1" stroke-width="0.75" stroke-linecap="butt" stroke-linejoin="miter" stroke-miterlimit="10"/></g><g><path fill="none" stroke="rgb(0,0,0)" d="M -308,-204.99815368652344 L -308,-119.99815368652344" stroke-opacity="1" stroke-width="0.75" stroke-linecap="butt" stroke-linejoin="miter" stroke-miterlimit="10"/><use xlink:href="#ygc466_0" transform="matrix(0 -1.6 1.6 0 -308 -111.998)" style="pointer-events: none;"/><use xlink:href="#ygc466_1" transform="matrix(0 1.6 -1.6 0 -308 -212.998)" style="pointer-events: none;"/></g><g><path fill="none" stroke="rgb(0,0,0)" d="M -213,-255.99815368652344 L -4,-255.99815368652344" stroke-opacity="1" stroke-width="0.75" stroke-linecap="butt" stroke-linejoin="miter" stroke-miterlimit="10"/><use xlink:href="#ygc466_2" transform="matrix(-1.6 0 0 -1.6 4 -255.998)" style="pointer-events: none;"/><use xlink:href="#ygc466_3" transform="matrix(1.6 0 0 1.6 -221 -255.998)" style="pointer-events: none;"/></g><g><path fill="none" stroke="rgb(0,0,0)" d="M 91,-204.99815368652344 L 91,-119.99815368652344" stroke-opacity="1" stroke-width="0.75" stroke-linecap="butt" stroke-linejoin="miter" stroke-miterlimit="10"/><use xlink:href="#ygc466_4" transform="matrix(0 -1.6 1.6 0 91 -111.998)" style="pointer-events: none;"/><use xlink:href="#ygc466_5" transform="matrix(0 1.6 -1.6 0 91 -212.998)" style="pointer-events: none;"/></g><g><path fill="none" stroke="rgb(0,0,0)" d="M -213,-68.99815368652344 L -4,-68.99815368652344" stroke-opacity="1" stroke-width="0.75" stroke-linecap="butt" stroke-linejoin="miter" stroke-miterlimit="10"/><use xlink:href="#ygc466_6" transform="matrix(-1.6 0 0 -1.6 4 -68.9982)" style="pointer-events: none;"/><use xlink:href="#ygc466_7" transform="matrix(1.6 0 0 1.6 -221 -68.9982)" style="pointer-events: none;"/></g><g><path fill="none" stroke="rgb(0,0,0)" d="M -3.1493756970668727,-211.87300768313622 L -213.8506243029331,-113.12329968991068" stroke-opacity="1" stroke-width="0.75" stroke-linecap="butt" stroke-linejoin="miter" stroke-miterlimit="10"/><use xlink:href="#ygc466_8" transform="matrix(1.44878 -0.679001 0.679001 1.44878 -221.095 -109.728)" style="pointer-events: none;"/><use xlink:href="#ygc466_9" transform="matrix(-1.44878 0.679001 -0.679001 -1.44878 4.09451 -215.268)" style="pointer-events: none;"/></g><g><path fill="none" stroke="rgb(0,0,0)" d="M -213.8506243029331,-211.87300768313622 L -3.1493756970668727,-113.12329968991068" stroke-opacity="1" stroke-width="0.75" stroke-linecap="butt" stroke-linejoin="miter" stroke-miterlimit="10"/><use xlink:href="#ygc466_10" transform="matrix(-1.44878 -0.679001 0.679001 -1.44878 4.09451 -109.728)" style="pointer-events: none;"/><use xlink:href="#ygc466_11" transform="matrix(1.44878 0.679001 -0.679001 1.44878 -221.095 -215.268)" style="pointer-events: none;"/></g><rect fill="rgb(255,153,153)" stroke="rgb(0,0,0)" stroke-opacity="1" stroke-width="4" stroke-linecap="butt" stroke-linejoin="miter" stroke-miterlimit="10" fill-opacity="1" height="84" y="-297.998" width="172" x="-394"/><rect fill="rgb(255,153,153)" stroke="rgb(0,0,0)" stroke-opacity="1" stroke-width="4" stroke-linecap="butt" stroke-linejoin="miter" stroke-miterlimit="10" fill-opacity="1" height="84" y="-110.998" width="172" x="-394"/><rect fill="rgb(255,153,153)" stroke="rgb(0,0,0)" stroke-opacity="1" stroke-width="4" stroke-linecap="butt" stroke-linejoin="miter" stroke-miterlimit="10" fill-opacity="1" height="84" y="-110.998" width="172" x="5"/><rect fill="rgb(255,153,153)" stroke="rgb(0,0,0)" stroke-opacity="1" stroke-width="4" stroke-linecap="butt" stroke-linejoin="miter" stroke-miterlimit="10" fill-opacity="1" height="84" y="-297.998" width="172" x="5"/><g transform="translate(-394 -297.99815368652344)"><text font-family="Arial" font-size="20px" font-style="normal" font-weight="normal" text-anchor="middle" fill="rgb(0,0,0)" fill-opacity="1" dy="1em" transform="translate(86 30.828125)">Service 1</text></g><g transform="translate(-394 -110.99815368652344)"><text font-family="Arial" font-size="20px" font-style="normal" font-weight="normal" text-anchor="middle" fill="rgb(0,0,0)" fill-opacity="1" dy="1em" transform="translate(86 30.828125)">Service 3</text></g><g transform="translate(5 -110.99815368652344)"><text font-family="Arial" font-size="20px" font-style="normal" font-weight="normal" text-anchor="middle" fill="rgb(0,0,0)" fill-opacity="1" dy="1em" transform="translate(86 30.828125)">Service 4</text></g><g transform="translate(5 -297.99815368652344)"><text font-family="Arial" font-size="20px" font-style="normal" font-weight="normal" text-anchor="middle" fill="rgb(0,0,0)" fill-opacity="1" dy="1em" transform="translate(86 30.828125)">Service 2</text></g></g></svg>